<?xml version="1.0" standalone="no"?>
<!DOCTYPE svg PUBLIC "-//W3C//DTD SVG 20010904//EN"
 "http://www.w3.org/TR/2001/REC-SVG-20010904/DTD/svg10.dtd">
<svg version="1.0" xmlns="http://www.w3.org/2000/svg"
 width="967.000000pt" height="1280.000000pt" viewBox="0 0 967.000000 1280.000000"
 preserveAspectRatio="xMidYMid meet">
<metadata>
Created by potrace 1.15, written by Peter Selinger 2001-2017
</metadata>
<g transform="translate(0.000000,1280.000000) scale(0.100000,-0.100000)"
fill="#009688" stroke="none">
<path d="M8160 12760 c-80 -21 -250 -65 -378 -98 -128 -33 -239 -65 -246 -71
-8 -6 -16 -34 -20 -61 -4 -28 -12 -50 -18 -50 -19 0 -153 77 -280 161 -66 43
-131 82 -145 85 -14 4 -42 1 -62 -7 -21 -8 -79 -14 -136 -14 -78 -1 -113 -7
-157 -24 -263 -102 -459 -479 -498 -952 -6 -68 -7 -158 -4 -200 l7 -77 -51
-16 -50 -17 -7 -388 -7 -387 -130 -38 -129 -38 -213 49 c-133 30 -223 46 -237
42 -13 -4 -61 -17 -106 -29 -79 -22 -83 -24 -83 -51 0 -16 -1 -29 -3 -29 -1 0
-83 18 -182 40 -99 22 -190 40 -202 40 -46 0 -94 -102 -76 -162 9 -30 7 -36
-19 -64 l-29 -31 -14 -284 -14 -283 -25 -19 c-14 -10 -26 -28 -26 -39 0 -11
-16 -35 -35 -54 -48 -45 -54 -66 -49 -183 4 -117 20 -157 74 -193 20 -13 36
-34 38 -47 3 -16 17 -29 49 -43 l46 -20 -6 -197 c-4 -108 -12 -501 -19 -873
l-12 -677 -65 -20 c-36 -11 -91 -37 -121 -57 -30 -20 -68 -40 -85 -43 l-30 -7
0 -179 0 -180 47 -22 c29 -14 59 -39 78 -66 26 -37 39 -46 83 -56 41 -10 56
-19 72 -44 15 -25 34 -36 82 -51 58 -19 62 -22 68 -55 9 -54 88 -211 135 -270
69 -87 85 -132 84 -236 -1 -49 -6 -102 -12 -118 l-12 -27 -72 76 c-105 111
-142 122 -276 82 -88 -26 -102 -19 -84 40 17 55 15 75 -9 106 -20 25 -76 46
-161 61 -33 5 -38 9 -38 33 0 15 -7 63 -16 107 -16 87 -12 162 12 222 16 36
20 148 9 199 -4 16 -25 85 -47 154 -51 156 -59 282 -34 502 8 79 17 172 18
208 l3 65 -55 6 c-108 12 -188 48 -333 151 -154 110 -161 112 -347 103 l-156
-7 -89 37 c-111 46 -193 54 -285 31 -123 -31 -284 -122 -384 -215 -56 -53 -88
-64 -191 -65 -86 -2 -455 -114 -455 -138 0 -6 19 -32 43 -58 24 -26 49 -65 56
-86 22 -67 25 -245 6 -404 -10 -80 -19 -203 -20 -275 -1 -71 -6 -146 -10 -166
-11 -59 23 -247 68 -374 8 -22 18 -70 21 -105 8 -69 37 -174 63 -224 28 -55 2
-189 -61 -314 -26 -51 -27 -52 -72 -52 -44 0 -124 -33 -124 -52 0 -4 -35 -45
-78 -90 -43 -46 -87 -99 -99 -118 -12 -19 -43 -52 -70 -72 -26 -20 -61 -50
-77 -67 -22 -23 -35 -29 -56 -25 -40 9 -74 -38 -90 -123 -16 -87 -22 -97 -69
-124 -21 -12 -48 -38 -60 -59 -11 -20 -56 -66 -98 -101 -188 -154 -247 -223
-357 -419 -27 -47 -100 -163 -163 -258 -119 -180 -172 -282 -217 -417 -55
-170 -60 -210 -61 -500 -1 -148 -7 -313 -13 -365 -39 -317 -44 -791 -11 -1092
25 -236 23 -510 -5 -593 -61 -180 -25 -400 95 -579 54 -81 161 -187 244 -243
31 -20 54 -37 53 -38 -2 -2 -50 -19 -108 -40 -258 -92 -690 -279 -750 -325
-43 -33 -13 -34 47 -2 161 85 513 234 736 311 101 35 115 37 132 24 57 -42
217 -124 236 -121 15 2 31 20 49 52 33 63 91 96 225 130 118 30 224 33 346 10
50 -10 106 -14 139 -10 150 15 564 151 884 290 162 70 204 96 208 133 3 25 8
28 68 39 94 18 151 38 280 102 63 31 119 57 123 57 4 0 11 5 15 12 8 12 152
100 191 115 31 12 57 15 230 28 162 11 230 25 293 56 57 29 83 65 82 113 -1
32 3 38 39 56 55 28 81 80 85 173 l4 72 37 -31 c20 -18 53 -48 75 -67 l38 -34
-67 -67 c-91 -88 -146 -165 -179 -247 -50 -125 -65 -153 -102 -193 -19 -22
-33 -44 -30 -49 3 -5 55 -15 115 -22 161 -18 257 2 446 97 164 83 490 318 550
397 51 67 36 128 -39 161 -19 8 -24 14 -13 14 35 2 227 52 393 102 159 49 176
52 279 53 93 1 129 -4 235 -32 107 -28 158 -35 350 -47 341 -22 503 -41 718
-86 262 -53 350 -93 580 -257 81 -57 156 -108 167 -113 26 -12 -4 12 -110 87
-165 119 -202 143 -280 184 l-80 42 120 -6 c434 -25 998 -104 1282 -180 49
-13 63 -12 63 5 0 16 -349 88 -620 128 -190 29 -482 58 -705 71 -148 9 -215
18 -305 41 -225 56 -467 88 -825 109 -115 7 -225 19 -280 32 -49 11 -128 29
-175 39 -104 24 -202 19 -320 -15 l-82 -23 -23 23 c-18 18 -35 24 -65 24 -41
0 -41 0 -26 22 27 38 20 64 -24 89 -52 30 -51 51 5 123 86 111 82 181 -16 278
-54 55 -59 63 -59 104 0 87 -44 146 -118 158 -33 6 -143 -16 -192 -38 -11 -4
-19 2 -27 25 -9 24 -17 30 -35 27 -17 -2 -31 -20 -55 -70 -37 -76 -67 -100
-88 -71 -33 45 -126 236 -154 317 -17 49 -40 145 -51 213 -22 136 -74 372
-121 550 -16 61 -29 113 -29 115 0 2 74 2 164 0 161 -4 362 9 441 29 58 14
115 40 116 53 0 6 0 108 -1 227 l-1 217 33 23 c18 12 43 32 56 43 13 12 108
55 210 98 103 42 190 82 194 90 4 7 57 274 119 593 61 319 121 634 134 700 13
66 47 239 75 385 69 359 80 413 85 428 6 18 166 -71 231 -130 16 -14 57 -23
180 -38 238 -29 221 -30 289 20 33 24 61 44 62 44 5 3 65 348 61 352 -18 18
-991 482 -1059 505 -104 35 -225 59 -297 59 -47 0 -58 4 -107 45 -31 25 -69
52 -86 61 l-31 16 6 116 c3 65 11 416 17 782 6 366 14 668 18 672 12 13 324
68 360 63 21 -3 93 6 171 22 l135 28 -3 43 c-2 25 1 42 7 42 11 0 378 -74 422
-85 22 -5 24 -10 22 -65 -2 -75 12 -89 111 -103 89 -13 207 2 237 29 16 14 19
31 19 107 0 67 3 88 13 84 6 -2 53 -12 102 -22 50 -10 98 -24 107 -32 14 -12
36 -14 115 -9 98 7 176 19 788 127 83 15 135 29 146 40 18 18 20 45 36 420 l8
176 79 -38 c61 -30 75 -40 60 -45 -80 -27 -124 -54 -131 -81 -4 -15 -8 -159
-8 -319 l0 -291 25 -31 c23 -28 278 -244 512 -432 51 -41 214 -157 361 -257
l269 -181 34 20 c19 11 36 23 39 28 2 4 0 34 -5 66 -6 33 -24 160 -40 284 -40
296 -35 277 -74 290 l-33 11 -6 217 c-4 119 -7 265 -7 324 l0 106 28 9 c26 9
28 15 67 208 l41 198 71 -2 c39 -1 73 1 76 6 2 4 8 34 12 66 l7 59 -56 -7 -56
-7 5 423 c3 233 8 446 10 474 3 31 -29 283 -86 685 -71 500 -94 639 -107 652
-18 17 -1045 459 -1065 457 -7 0 -77 -18 -157 -39z m95 -11 c-33 -10 -67 -18
-75 -16 -8 2 12 10 45 19 83 22 103 20 30 -3z m70 -8 c7 -12 29 -5 -388 -111
-293 -74 -330 -82 -352 -70 -19 10 -22 16 -13 22 7 4 20 7 28 7 10 0 8 -3 -5
-9 -11 -5 -14 -9 -7 -9 14 -1 685 169 691 175 8 8 40 4 46 -5z m548 -202 c260
-111 479 -208 487 -215 10 -10 39 -186 100 -617 48 -331 86 -603 85 -604 -2
-3 -1234 466 -1253 476 -9 5 -14 33 -15 88 -1 45 1 79 5 77 9 -6 22 222 13
237 -5 7 -4 10 2 6 13 -8 29 198 18 234 -4 17 -3 20 3 10 12 -16 27 195 17
230 -4 17 -3 20 3 10 12 -16 28 221 17 240 -5 8 -4 10 3 5 11 -7 17 6 13 28
-2 11 -46 28 502 -205z m-728 181 c-11 -5 -29 -9 -40 -9 l-20 0 20 9 c11 5 29
9 40 9 l20 0 -20 -9z m166 -175 c-11 -135 -20 -241 -41 -477 -5 -62 -14 -180
-20 -263 -6 -82 -13 -165 -16 -184 l-5 -33 -102 6 c-56 3 -230 11 -387 17
-157 6 -287 12 -289 14 -5 5 50 346 59 370 7 16 9 12 9 -19 1 -53 54 -159 98
-195 44 -37 186 -91 237 -91 37 0 52 3 155 30 62 16 141 97 171 175 34 86 34
221 1 285 -38 74 -130 171 -181 192 -25 11 -61 28 -81 39 -46 24 -114 24 -178
0 -48 -18 -49 -18 -102 4 l-54 22 3 43 c2 24 4 46 7 48 2 2 159 43 349 92 190
48 351 90 358 93 20 6 21 -17 9 -168z m-232 161 c-7 -7 -291 -77 -295 -73 -3
2 55 20 128 39 125 33 177 44 167 34z m-979 -21 c16 -8 80 -49 142 -91 113
-75 292 -168 423 -219 39 -15 76 -33 84 -40 20 -20 18 -95 -4 -128 -33 -51
-40 -50 -295 45 -131 48 -450 195 -450 207 0 3 24 5 53 3 46 -3 55 0 77 23 31
33 34 93 6 124 -11 12 -46 33 -78 48 -41 18 -55 29 -46 34 20 13 56 11 88 -6z
m-120 -23 c22 -8 15 -11 -50 -22 -325 -53 -547 -364 -665 -933 -23 -110 -24
-111 -24 -52 -2 194 73 495 170 687 78 156 221 289 348 325 50 14 179 11 221
-5z m1367 -24 c-3 -7 -5 -2 -5 12 0 14 2 19 5 13 2 -7 2 -19 0 -25z m-597 -18
c-34 -11 -60 -11 -35 0 11 5 29 8 40 8 16 0 15 -2 -5 -8z m-655 -9 c39 -8 54
-46 35 -91 -15 -36 -46 -52 -74 -38 -11 6 -50 8 -88 6 -257 -19 -474 -337
-577 -848 -12 -58 -23 -115 -26 -127 -4 -17 -18 -26 -57 -38 -28 -8 -53 -14
-55 -12 -1 2 6 59 18 128 94 580 306 931 611 1013 55 15 160 19 213 7z m580
-11 c-11 -5 -29 -8 -40 -8 -16 0 -15 2 5 8 34 11 60 11 35 0z m-98 -68 c6 -33
-8 -82 -23 -82 -11 0 -13 9 -8 43 4 23 11 44 16 45 4 2 5 9 1 15 -3 7 -2 8 2
4 5 -4 10 -15 12 -25z m-47 -59 c-11 -17 -11 -17 -6 0 3 10 7 31 7 45 l2 27 4
-27 c2 -15 -1 -35 -7 -45z m807 45 c-3 -8 -6 -5 -6 6 -1 11 2 17 5 13 3 -3 4
-12 1 -19z m-1266 -127 c74 -39 190 -93 259 -120 69 -28 126 -55 128 -61 2 -5
-18 -139 -44 -297 -45 -270 -49 -285 -56 -233 -33 233 -104 369 -238 459 -92
61 -180 85 -292 79 -79 -5 -100 -10 -168 -45 l-79 -38 27 47 c79 140 222 262
323 277 4 1 67 -30 140 -68z m1256 7 c-3 -7 -5 -2 -5 12 0 14 2 19 5 13 2 -7
2 -19 0 -25z m-435 -13 c166 -57 211 -314 87 -505 -54 -84 -118 -120 -216
-120 -65 0 -75 3 -115 33 -59 44 -99 126 -106 216 -5 72 13 171 30 171 6 0 7
-7 2 -17 -4 -10 -9 -51 -12 -91 -5 -82 9 -147 44 -203 21 -33 77 -88 92 -90 4
0 24 -3 46 -5 93 -11 202 63 254 174 24 50 27 69 27 162 0 118 -14 157 -77
217 -51 48 -101 65 -153 52 -52 -13 -82 -7 -45 9 36 16 90 14 142 -3z m-67
-35 c3 -5 2 -10 -4 -10 -5 0 -13 5 -16 10 -3 6 -2 10 4 10 5 0 13 -4 16 -10z
m257 -80 c63 -99 73 -221 28 -343 -52 -137 -158 -215 -285 -208 -29 1 -27 3
25 32 97 53 154 122 190 230 18 52 21 81 18 156 -3 79 -8 100 -35 152 l-32 61
31 -17 c17 -10 44 -38 60 -63z m-160 48 c17 -11 42 -46 56 -77 51 -109 28
-264 -53 -358 -64 -75 -165 -104 -216 -64 -54 42 -87 154 -75 254 11 83 10 83
116 42 102 -39 133 -39 168 -2 69 74 49 179 -40 210 -38 14 -40 16 -15 16 16
1 43 -9 59 -21z m-81 -9 c68 -28 89 -51 89 -99 0 -46 -40 -100 -74 -100 -13 0
-48 10 -79 23 l-57 23 26 25 c29 30 44 82 33 122 -9 33 -6 33 62 6z m476 -41
c-3 -8 -6 -5 -6 6 -1 11 2 17 5 13 3 -3 4 -12 1 -19z m-843 -158 c-8 -52 -13
-101 -11 -109 2 -9 9 22 16 69 17 116 21 130 37 130 15 0 14 -24 -11 -150 -7
-36 -25 -147 -41 -247 -20 -130 -32 -183 -41 -183 -16 0 -16 2 3 122 8 54 14
104 11 111 -2 6 -12 -42 -22 -108 -10 -66 -20 -115 -22 -108 -3 7 14 126 37
265 46 286 50 311 56 306 2 -3 -3 -47 -12 -98z m-485 71 c195 -61 319 -234
346 -484 7 -64 6 -67 -14 -67 -19 0 -21 6 -21 53 0 70 -32 195 -67 259 -77
141 -248 237 -403 226 -79 -6 -178 -48 -247 -104 -24 -20 -46 -34 -49 -32 -2
3 6 20 19 39 26 39 110 93 177 114 66 20 187 19 259 -4z m1318 -33 c-3 -7 -5
-2 -5 12 0 14 2 19 5 13 2 -7 2 -19 0 -25z m-669 6 c2 -1 -1 -19 -8 -39 -19
-59 -9 -172 21 -233 14 -28 23 -52 19 -52 -3 0 -21 15 -39 34 -54 56 -76 175
-50 269 9 33 13 37 32 31 12 -3 24 -8 25 -10z m-656 -28 c81 -29 151 -77 196
-135 l32 -43 0 -159 0 -159 -168 7 -169 6 -194 -57 c-107 -31 -214 -64 -238
-72 -25 -7 -46 -12 -48 -11 -11 11 79 372 112 451 16 38 77 94 145 134 112 66
218 78 332 38z m1198 -78 c0 -99 -26 -170 -86 -238 -25 -27 -50 -50 -56 -50
-6 0 6 18 25 39 67 74 98 162 99 279 0 47 3 70 9 61 5 -8 9 -49 9 -91z m117
-20 c-3 -8 -6 -5 -6 6 -1 11 2 17 5 13 3 -3 4 -12 1 -19z m-10 -120 c-3 -7 -5
-2 -5 12 0 14 2 19 5 13 2 -7 2 -19 0 -25z m-1007 -184 c13 -99 14 -94 -20
-94 l-30 0 1 138 0 137 19 -53 c11 -29 24 -87 30 -128z m997 64 c-3 -8 -6 -5
-6 6 -1 11 2 17 5 13 3 -3 4 -12 1 -19z m-10 -120 c-3 -7 -5 -2 -5 12 0 14 2
19 5 13 2 -7 2 -19 0 -25z m-954 -68 c147 -5 387 -15 535 -20 474 -18 377 2
845 -176 227 -86 489 -186 582 -221 94 -36 193 -74 222 -84 l51 -20 -5 -487
c-3 -268 -6 -488 -7 -489 -1 -1 -186 -35 -439 -79 -175 -31 -214 -48 -224 -95
-5 -26 -8 -28 -15 -15 -5 10 -22 22 -36 28 l-27 10 31 14 c37 15 81 65 90 100
11 44 -2 133 -22 161 -37 49 -69 65 -141 72 -93 9 -1430 369 -1466 395 -35 25
-137 33 -216 16 -49 -10 -66 -10 -119 5 l-62 18 0 443 0 443 78 -4 c42 -3 197
-9 345 -15z m-457 -27 c-52 -143 -131 -264 -248 -381 -81 -82 -245 -202 -274
-202 -23 0 -98 75 -127 127 -40 74 -68 189 -59 242 l7 43 130 39 c72 21 227
67 345 103 118 35 220 65 227 65 9 1 9 -8 -1 -36z m6 -430 l-4 -413 -213 0
c-117 0 -233 -3 -259 -6 l-46 -7 0 129 1 129 86 55 c168 106 336 297 408 463
16 37 29 65 30 64 0 -1 -1 -188 -3 -414z m-694 35 c26 -73 72 -140 122 -175
l40 -28 0 -127 c0 -119 -1 -129 -22 -148 -13 -12 -31 -19 -40 -16 -10 2 -39
-2 -65 -10 -25 -8 -51 -14 -57 -14 -8 0 -10 86 -8 291 1 161 4 290 6 288 2 -2
13 -30 24 -61z m758 -484 l54 -15 -26 -34 c-20 -26 -37 -36 -77 -45 -49 -11
-63 -8 -237 39 -102 28 -192 52 -200 53 -19 3 205 13 333 16 66 1 117 -3 153
-14z m214 2 c0 -3 -11 -26 -25 -52 -45 -85 -26 -186 48 -251 19 -17 33 -34 30
-37 -4 -3 -24 -6 -46 -6 -32 0 -46 7 -77 38 -105 104 -67 291 63 311 4 0 7 -1
7 -3z m-486 -88 l120 -32 -161 -41 c-94 -23 -170 -48 -182 -59 -46 -41 -53
-151 -14 -205 11 -14 35 -34 54 -44 l34 -19 247 61 c200 49 251 58 275 50 15
-5 217 -56 448 -113 331 -82 414 -105 390 -111 -136 -32 -168 -51 -178 -102
-12 -61 35 -133 86 -133 16 0 65 9 109 20 73 19 82 20 104 5 31 -20 61 -19
177 9 l98 23 -3 -111 c-3 -109 -3 -111 -30 -124 -23 -11 -38 -9 -100 8 -75 21
-121 26 -83 10 13 -6 15 -9 5 -9 -20 -1 -399 97 -382 98 7 1 85 -17 174 -39
88 -23 166 -39 172 -37 6 2 -5 7 -24 12 -19 4 -198 47 -398 96 -345 85 -412
99 -367 79 36 -17 -45 0 -221 45 -93 24 -163 44 -156 44 7 1 85 -17 174 -39
88 -23 165 -39 171 -37 6 2 -96 29 -227 61 -130 32 -240 55 -243 52 -4 -3 2
-6 13 -7 10 0 14 -3 8 -5 -6 -3 -103 18 -215 46 -169 42 -208 55 -226 76 -23
25 -23 30 -23 268 0 231 4 266 30 266 3 0 4 -114 2 -254 -3 -253 -3 -254 20
-279 19 -20 56 -33 196 -67 95 -24 175 -40 178 -38 2 3 -55 19 -128 37 -219
53 -233 58 -246 86 -8 18 -12 104 -12 264 0 236 0 239 22 253 21 14 31 13 108
-8 47 -13 139 -38 204 -56z m629 52 c57 -49 73 -140 37 -210 -24 -47 -45 -60
-99 -60 -125 0 -165 228 -50 287 40 21 76 15 112 -17z m-253 5 c0 -3 -8 -18
-17 -32 -13 -19 -18 -47 -18 -98 0 -81 28 -145 81 -180 19 -13 184 -58 450
-124 850 -211 1119 -279 1098 -280 -21 -1 -157 31 -959 228 -242 60 -475 117
-518 127 -94 22 -144 48 -174 92 -46 69 -39 188 14 245 25 25 43 34 43 22z
m-768 -250 c-3 -264 2 -294 51 -315 12 -6 168 -46 347 -89 179 -44 594 -145
923 -226 518 -126 603 -144 633 -136 l36 10 -4 -158 c-3 -168 -10 -191 -53
-191 -12 0 -83 13 -156 29 -74 17 -219 48 -324 71 -104 23 -251 54 -325 70
-294 64 -1028 222 -1080 232 -97 19 -90 -21 -90 489 0 455 0 455 35 458 6 1 9
-85 7 -244z m-56 -622 c-3 -3 -313 -65 -697 -139 -77 -15 -142 -24 -145 -22
-2 3 -1 176 3 384 l8 379 175 53 c96 29 283 86 415 126 l240 72 3 -424 c1
-234 0 -427 -2 -429z m1799 677 c352 -94 647 -173 655 -176 11 -4 8 -9 -12
-20 -64 -34 -88 -162 -44 -247 13 -26 20 -47 16 -47 -3 0 -161 38 -351 86
-189 47 -490 121 -669 165 -179 44 -342 85 -364 90 l-38 10 60 29 c50 23 65
37 83 72 27 52 30 139 6 187 -15 30 -15 32 1 27 9 -3 305 -82 657 -176z
m-2223 79 c-4 -4 -78 -28 -166 -54 -87 -25 -165 -49 -172 -52 -11 -4 -14 14
-14 94 l0 99 180 -40 c98 -23 176 -44 172 -47z m-362 -19 c0 -82 -3 -100 -15
-100 -8 0 -15 7 -15 15 0 24 -22 63 -39 71 -9 3 -38 11 -65 18 -34 7 -50 17
-52 28 -3 22 3 26 79 48 112 32 107 35 107 -80z m-560 55 c18 -21 8 -110 -15
-135 -41 -46 -81 -9 -72 67 7 69 55 106 87 68z m385 -69 c101 -21 111 -26 120
-50 7 -20 5 -34 -8 -55 -9 -16 -17 -36 -17 -43 0 -12 -23 -9 -122 14 -107 24
-129 27 -165 17 -32 -9 -59 -8 -110 1 -110 19 -105 16 -81 56 16 27 19 47 16
87 l-4 53 130 -29 c72 -16 181 -39 241 -51z m1672 0 c-1 -51 5 -75 26 -115
l26 -51 -37 -9 c-101 -27 -414 -101 -428 -101 -9 0 -31 15 -50 34 -30 30 -34
40 -34 89 0 94 9 100 260 162 118 30 220 54 226 54 8 1 11 -22 11 -63z m-2123
-114 c3 -5 6 -26 7 -48 1 -21 4 -42 6 -45 1 -4 62 11 135 32 73 21 134 36 136
34 2 -2 1 -156 -3 -343 l-8 -340 -103 -22 c-57 -13 -106 -23 -110 -24 -3 -1
-6 47 -6 106 1 59 -3 110 -7 112 -4 3 -17 2 -29 -1 -18 -4 -22 -13 -22 -49 0
-24 -10 -63 -22 -88 -19 -40 -25 -45 -47 -39 -14 3 -26 6 -27 7 -1 1 6 150 15
333 16 327 16 332 40 357 26 27 36 31 45 18z m146 -32 c0 -3 -27 -12 -60 -21
l-60 -16 0 32 0 31 60 -10 c33 -5 60 -12 60 -16z m298 -21 l102 -22 0 -57 c0
-54 -2 -58 -29 -70 -110 -45 -113 -231 -4 -276 l33 -14 0 -136 c0 -124 -1
-135 -17 -130 -10 2 -69 15 -132 28 l-114 23 6 200 c4 110 7 265 7 344 l0 143
23 -5 c12 -3 68 -15 125 -28z m3461 -108 c-27 -36 -36 -115 -19 -165 7 -21 28
-53 47 -72 38 -38 38 -46 -3 -46 -58 0 -115 68 -122 145 -8 94 34 167 95 167
l24 0 -22 -29z m146 -3 c50 -47 65 -110 41 -172 -21 -54 -46 -70 -101 -67 -48
3 -63 14 -86 66 -35 77 -15 164 43 190 49 21 65 18 103 -17z m-3505 -183 c0
-70 -4 -125 -9 -125 -5 0 -23 11 -38 24 -34 29 -57 95 -48 137 9 38 52 89 76
89 18 0 19 -9 19 -125z m2773 -4 c87 -22 160 -41 162 -43 3 -2 -112 -32 -255
-67 -287 -69 -291 -69 -311 -2 -9 30 -9 44 2 67 12 25 26 31 119 55 58 15 110
27 115 28 6 0 81 -17 168 -38z m1527 22 c-1 -55 -7 -58 -82 -53 -43 3 -72 1
-74 -5 -2 -5 -19 -91 -39 -190 -45 -225 -40 -212 -77 -220 l-31 -7 6 -166 c4
-91 7 -244 7 -339 l0 -175 39 -15 38 -15 41 -296 c44 -309 43 -322 -1 -319
-28 1 -288 174 -284 188 1 7 -4 14 -12 17 -9 3 -11 0 -6 -9 5 -8 4 -11 -1 -6
-5 5 -9 14 -9 20 0 5 -6 12 -14 15 -9 3 -11 0 -6 -9 5 -8 4 -11 -1 -6 -5 5 -9
13 -9 18 0 4 -45 39 -100 76 -55 37 -105 79 -112 93 -12 24 -13 24 -13 3 0
-17 19 -35 75 -73 41 -28 75 -53 75 -56 0 -15 -152 101 -160 122 -13 35 -8
1260 5 1273 7 7 10 -199 10 -617 l0 -627 5 627 c3 398 9 630 15 636 6 5 89 24
185 41 96 17 202 36 235 42 33 6 103 19 155 29 126 24 140 24 140 3z m-2825
-73 c25 -11 -1 -11 -35 0 -20 6 -21 8 -5 8 11 0 29 -3 40 -8z m1575 -17 c0
-15 -351 -92 -374 -83 -11 5 -16 9 -11 10 6 1 78 18 160 40 144 37 225 48 225
33z m290 -54 c72 11 53 0 -80 -46 l-115 -41 -85 43 c-53 27 -79 45 -70 49 8 3
40 11 70 19 51 13 62 12 142 -9 68 -18 97 -21 138 -15z m157 -39 c10 -19 13
-149 13 -555 0 -291 -3 -540 -6 -552 -4 -13 -14 -23 -23 -23 -9 0 -22 -5 -28
-11 -8 -8 -68 37 -221 165 -116 97 -220 188 -231 202 -20 26 -21 39 -21 318 0
160 4 296 8 303 4 6 6 -120 4 -281 -2 -172 1 -303 7 -318 8 -21 395 -357 441
-382 30 -17 -14 21 -210 184 -107 88 -203 173 -212 188 -16 24 -18 58 -18 309
0 191 4 290 11 307 8 16 28 31 53 41 228 85 375 134 396 132 15 -1 29 -12 37
-27z m-1377 -47 c107 -26 188 -49 180 -50 -8 -2 -100 19 -205 46 -104 27 -185
50 -180 50 6 1 98 -20 205 -46z m-2640 -83 c0 -79 -2 -90 -17 -90 -39 0 -46
15 -24 51 13 22 21 51 21 82 0 26 5 47 10 47 6 0 10 -37 10 -90z m1397 -11
c13 -34 17 -31 -67 -48 -577 -112 -734 -141 -751 -136 -25 8 -45 44 -27 50 7
2 144 29 303 60 160 31 342 67 405 80 63 12 117 23 120 24 3 1 11 -13 17 -30z
m-1547 -19 c0 -24 -6 -33 -26 -40 -36 -14 -36 -14 -14 30 24 48 40 51 40 10z
m1945 -95 c193 -42 370 -80 395 -85 25 -5 119 -25 210 -45 193 -42 361 -78
630 -136 107 -23 217 -47 244 -53 l50 -12 -220 -38 c-120 -21 -294 -51 -386
-67 -218 -38 -236 -37 -188 6 45 41 13 65 -87 65 -83 0 -115 -17 -95 -49 6
-12 12 -22 12 -24 0 -2 -45 6 -100 17 l-100 21 0 47 c0 69 -23 82 -158 86
-113 5 -177 -8 -202 -38 -15 -18 -19 -18 -125 5 -60 13 -117 24 -124 25 -12 0
-12 3 -3 12 7 7 12 29 12 49 0 52 -27 69 -107 69 -86 0 -113 -12 -113 -50 0
-34 -4 -35 -93 -16 -32 6 -55 15 -50 19 13 14 2 91 -15 105 -19 14 -130 16
-166 2 -20 -7 -26 -16 -26 -40 0 -30 -1 -31 -37 -24 -79 14 -306 64 -310 68
-2 2 27 9 64 16 99 17 622 119 663 129 58 15 63 14 425 -64z m1530 40 l40 -14
-40 6 c-22 3 -49 9 -60 14 l-20 8 20 0 c11 0 38 -7 60 -14z m-3475 -5 c0 -3
-7 -15 -15 -26 -13 -18 -14 -18 -10 6 3 14 -1 8 -8 -13 -14 -42 -31 -57 -64
-57 -21 0 -21 2 -9 43 10 37 16 43 46 47 48 8 60 8 60 0z m498 -5 c168 -34
172 -35 172 -61 0 -28 32 -64 57 -64 9 0 14 -2 11 -6 -3 -3 -106 16 -229 41
-123 26 -242 50 -264 54 l-40 7 85 21 c105 26 112 27 208 8z m-444 -11 c18 -7
21 -58 6 -98 -7 -18 -17 -26 -34 -26 -33 0 -43 44 -22 94 15 37 22 41 50 30z
m90 -19 c9 -9 91 -31 201 -53 l186 -37 -3 -39 c-5 -63 -13 -64 -235 -28 -109
18 -206 32 -215 32 -21 0 -23 13 -7 41 5 11 11 38 11 60 0 34 3 39 23 39 13 0
30 -7 39 -15z m-184 -102 c-5 -55 -6 -58 -37 -64 l-31 -6 -4 50 c-2 28 1 51 7
52 13 3 70 23 70 24 0 1 -2 -25 -5 -56z m1358 1 c6 -2 12 -14 12 -26 0 -22 -3
-23 -85 -24 l-86 0 3 25 c3 22 9 27 43 32 37 5 83 2 113 -7z m-690 -101 l-3
-96 -90 -28 c-49 -15 -96 -28 -102 -28 -9 -1 -13 20 -13 74 l0 76 49 -7 c49
-6 50 -6 70 27 12 19 21 45 21 59 0 24 3 26 35 22 l36 -4 -3 -95z m-583 55
c17 -2 29 -6 28 -10 -2 -5 -3 -42 -3 -83 l0 -74 -34 22 c-40 26 -66 83 -66
147 l0 43 23 -20 c12 -12 36 -23 52 -25z m765 32 c20 -6 21 -8 5 -8 -11 0 -31
4 -45 8 -20 6 -21 8 -5 8 11 0 31 -4 45 -8z m0 -34 c69 -14 246 -50 394 -81
148 -30 271 -55 272 -55 1 0 3 -40 3 -90 0 -49 -3 -90 -7 -90 -4 0 -60 -11
-124 -25 l-116 -25 -124 25 c-68 13 -231 45 -363 70 -132 26 -251 49 -265 52
-19 5 -6 12 65 34 l90 28 245 -50 c135 -27 309 -63 388 -79 134 -28 181 -35
171 -26 -2 2 -107 25 -234 50 -225 46 -498 102 -542 111 -22 5 -23 10 -23 96
0 89 0 91 23 86 12 -3 78 -17 147 -31z m63 17 c-7 -2 -19 -2 -25 0 -7 3 -2 5
12 5 14 0 19 -2 13 -5z m50 -10 c-7 -2 -19 -2 -25 0 -7 3 -2 5 12 5 14 0 19
-2 13 -5z m50 -10 c-7 -2 -19 -2 -25 0 -7 3 -2 5 12 5 14 0 19 -2 13 -5z
m-674 -32 l96 -16 3 -91 3 -92 42 -7 42 -7 -30 -9 c-16 -5 -97 -27 -180 -48
-82 -22 -157 -42 -165 -45 -13 -5 -15 17 -12 170 l3 176 51 -7 c27 -4 94 -15
147 -24z m724 22 c-7 -2 -19 -2 -25 0 -7 3 -2 5 12 5 14 0 19 -2 13 -5z m77
-13 c20 -6 21 -8 5 -8 -11 0 -31 4 -45 8 -20 6 -21 8 -5 8 11 0 31 -4 45 -8z
m220 0 c0 -6 -32 -10 -75 -10 -43 0 -75 4 -75 10 0 6 32 10 75 10 43 0 75 -4
75 -10z m358 -22 l3 -26 -80 0 c-77 0 -81 1 -81 22 0 34 8 37 85 34 68 -3 70
-4 73 -30z m-1706 -25 c13 -36 14 -49 5 -55 -33 -21 -60 1 -81 69 -5 16 -2 23
11 26 41 11 48 6 65 -40z m1341 0 c-7 -2 -19 -2 -25 0 -7 3 -2 5 12 5 14 0 19
-2 13 -5z m50 -10 c-7 -2 -19 -2 -25 0 -7 3 -2 5 12 5 14 0 19 -2 13 -5z m44
-9 c-3 -3 -12 -4 -19 -1 -8 3 -5 6 6 6 11 1 17 -2 13 -5z m263 -3 c0 -12 -72
-22 -109 -15 -54 11 -33 24 39 24 39 0 70 -4 70 -9z m-207 -8 c-7 -2 -19 -2
-25 0 -7 3 -2 5 12 5 14 0 19 -2 13 -5z m805 -47 c8 -5 12 -50 12 -141 l0
-135 -27 12 c-16 6 -73 11 -128 11 -55 0 -112 -5 -127 -11 l-28 -12 0 134 c0
153 -5 146 95 155 65 6 184 -1 203 -13z m-2224 -11 c34 -32 33 -42 -6 -50 -23
-5 -33 -4 -37 6 -2 7 -14 23 -27 35 -38 39 28 48 70 9z m1613 19 c-3 -3 -12
-4 -19 -1 -8 3 -5 6 6 6 11 1 17 -2 13 -5z m77 -47 l209 -43 1 -37 c1 -20 -2
-37 -6 -37 -3 0 -104 20 -224 45 -119 25 -218 45 -221 45 -2 0 -3 16 -1 35 1
24 7 35 18 35 8 0 109 -20 224 -43z m19 26 c-7 -2 -19 -2 -25 0 -7 3 -2 5 12
5 14 0 19 -2 13 -5z m-1683 -67 c0 -9 -7 -12 -20 -9 -11 3 -17 9 -14 14 8 14
34 10 34 -5z m2600 -14 c0 -21 -29 -32 -82 -32 -32 0 -58 2 -58 4 0 2 -3 11
-6 20 -5 14 5 16 70 16 42 0 76 -4 76 -8z m-1855 -66 c138 -26 257 -50 265
-53 8 -3 -39 -16 -105 -29 -151 -29 -154 -29 -148 -6 13 51 -127 82 -367 84
-91 0 -160 2 -155 4 53 20 197 52 225 50 19 -1 148 -24 285 -50z m1798 7 c-13
-2 -33 -2 -45 0 -13 2 -3 4 22 4 25 0 35 -2 23 -4z m-10 -20 c-7 -2 -19 -2
-25 0 -7 3 -2 5 12 5 14 0 19 -2 13 -5z m-1854 -27 l53 -17 -6 -197 c-3 -108
-11 -475 -18 -816 l-12 -618 -35 6 c-133 23 -213 28 -381 23 -128 -3 -200 -10
-235 -21 -27 -8 -50 -14 -51 -13 -1 1 5 367 13 812 11 589 19 813 27 823 7 7
44 19 82 27 100 21 487 14 563 -9z m1510 -83 c23 -15 23 -16 6 -26 -28 -15
-194 -21 -242 -8 -72 20 -54 41 41 50 85 9 167 2 195 -16z m1939 -359 l-3 -26
-28 22 -29 23 29 23 c27 21 28 21 31 3 2 -10 2 -30 0 -45z m238 -185 c3 -6 -5
-3 -20 6 -14 10 -26 19 -26 22 0 7 39 -17 46 -28z m-5761 -359 c86 -36 108
-38 315 -30 114 5 141 -5 270 -99 47 -34 119 -78 161 -99 l75 -37 -75 -35
c-102 -47 -148 -46 -261 6 -69 31 -96 38 -145 38 -55 0 -72 -6 -178 -63 -66
-35 -144 -69 -179 -77 l-63 -14 55 5 c54 5 71 12 240 100 101 52 141 52 277
-3 55 -23 116 -42 135 -42 18 0 58 12 88 26 105 50 124 54 190 42 72 -12 68
10 39 -240 -30 -257 -24 -341 35 -526 25 -78 48 -169 52 -202 l6 -58 -58 -8
c-97 -14 -298 -7 -479 16 -194 24 -462 39 -710 40 -154 0 -351 12 -415 25 -22
5 -32 24 -78 138 -109 276 -154 436 -156 553 -1 97 6 109 99 155 120 59 247
60 450 4 106 -29 127 -26 29 5 -224 69 -399 62 -520 -20 -24 -16 -44 -27 -44
-24 0 47 189 248 310 328 157 105 297 151 410 135 25 -3 81 -21 125 -39z
m-835 -245 c0 -3 -18 -24 -39 -47 -22 -22 -55 -70 -74 -105 l-33 -64 -84 56
c-64 43 -92 55 -124 56 -22 1 -32 4 -21 6 52 13 254 73 290 86 41 15 85 21 85
12z m45 -41 c-99 -108 -119 -243 -66 -446 39 -151 95 -300 236 -628 62 -146
137 -323 165 -395 28 -71 56 -136 62 -142 26 -32 115 -63 186 -66 l72 -2 0
-47 c0 -56 2 -55 -105 -28 -42 11 -81 18 -85 15 -4 -2 -10 -33 -13 -67 -3 -35
-9 -74 -12 -88 -6 -23 -5 -23 6 -6 6 11 14 50 17 88 4 57 7 68 21 64 50 -16
138 -36 154 -36 10 0 26 -9 35 -20 24 -27 115 -61 196 -71 61 -8 73 -13 97
-41 19 -22 28 -45 29 -68 0 -19 9 -49 19 -66 21 -35 80 -84 101 -84 29 0 46
-28 42 -69 l-4 -39 -82 -7 c-48 -4 -98 -3 -121 3 -51 14 -226 38 -330 47 -103
8 -236 41 -252 62 -18 23 -16 123 4 216 31 144 6 224 -272 872 -174 406 -253
637 -262 771 -5 73 -3 87 20 137 33 73 82 133 131 162 22 13 42 23 43 21 2 -2
-13 -21 -32 -42z m-338 -92 c18 -9 58 -35 90 -57 l58 -40 1 -75 c1 -89 52
-271 140 -495 31 -77 58 -147 60 -156 5 -15 -5 -16 -88 -11 -60 3 -105 11
-128 22 -77 39 -136 35 -179 -11 l-21 -23 0 61 c0 34 9 142 21 240 34 287 16
433 -61 515 -20 21 -35 40 -32 43 13 12 110 4 139 -13z m3094 -276 c96 -16
183 -56 255 -120 25 -21 44 -40 42 -41 -2 -2 -37 6 -78 17 -60 16 -109 21
-250 22 -144 1 -179 5 -200 18 -52 35 -183 70 -262 72 -42 0 -73 5 -69 9 32
33 408 48 562 23z m-349 -75 c36 -12 77 -30 90 -41 20 -17 20 -19 3 -13 -11 3
-22 10 -26 15 -3 4 -54 3 -115 -2 -60 -5 -161 -14 -225 -20 -139 -12 -182 -13
-175 -2 9 15 118 65 169 78 71 18 197 11 279 -15z m483 -66 c123 -20 189 -44
335 -124 107 -59 553 -292 660 -346 19 -9 30 -12 25 -7 -6 6 -150 84 -320 172
-259 135 -476 252 -494 267 -32 25 198 -9 309 -47 47 -16 281 -124 520 -240
239 -117 445 -216 458 -221 13 -5 20 -13 17 -19 -4 -6 5 -10 20 -10 14 0 28
-6 30 -12 3 -7 -7 -81 -22 -165 l-28 -152 -56 -40 -56 -40 -174 20 c-96 11
-179 22 -185 24 -6 2 -25 26 -41 54 l-29 51 42 162 c36 141 44 163 60 161 10
-1 89 -11 174 -23 176 -24 260 -32 245 -25 -22 10 -439 65 -446 57 -3 -4 -23
-77 -44 -162 -21 -85 -39 -156 -40 -158 -1 -1 -33 19 -71 44 -38 26 -111 67
-161 91 -81 38 -93 48 -93 69 0 22 3 24 23 18 39 -12 194 -92 211 -110 9 -9
20 -14 23 -11 6 6 42 153 43 174 0 15 -186 119 -335 186 -311 141 -574 214
-812 224 l-123 6 0 68 0 68 48 4 c110 8 203 6 287 -8z m-445 -158 l0 -164
-217 -17 c-120 -9 -248 -20 -285 -23 l-68 -6 0 161 c0 190 -26 166 200 183 85
6 193 15 240 19 47 4 95 8 108 9 22 1 22 1 22 -162z m60 138 l30 -16 0 -159
c0 -88 -2 -160 -5 -160 -2 0 -20 8 -40 17 l-35 17 0 158 c0 104 4 158 10 158
6 0 24 -7 40 -15z m266 -149 c6 -4 -23 -147 -28 -146 -5 0 -48 0 -98 0 l-90 0
0 74 c0 50 4 76 13 79 9 4 198 -2 203 -7z m132 -22 c174 -35 542 -161 542
-185 0 -11 -32 -213 -34 -216 -1 -1 -76 22 -166 51 -91 30 -235 71 -320 92
-85 21 -157 40 -159 41 -2 1 5 54 14 117 13 85 21 116 32 116 7 0 49 -7 91
-16z m-418 -159 c25 -14 25 -14 -15 -15 -22 -1 -146 -9 -275 -19 -185 -13
-241 -15 -264 -5 -33 13 -41 12 239 34 72 6 146 12 165 13 80 8 126 5 150 -8z
m258 -7 c-3 -7 -10 -13 -16 -12 -7 1 -48 2 -92 3 -116 2 -102 21 16 21 72 0
95 -3 92 -12z m-45 -24 c23 -4 37 -12 37 -21 0 -8 12 -30 26 -48 l26 -34 -199
0 c-109 0 -222 -4 -252 -10 -30 -6 -56 -9 -58 -7 -2 2 -33 -7 -69 -19 l-65
-23 -29 52 c-17 28 -30 54 -30 57 0 17 72 30 250 42 228 17 311 19 363 11z
m874 -47 c4 -4 -17 -129 -23 -139 -3 -4 -14 -8 -25 -8 -15 0 -19 -7 -19 -37 0
-32 8 -46 55 -93 30 -30 54 -58 55 -61 0 -13 -135 3 -146 17 -6 7 -19 43 -29
80 -17 64 -17 71 0 179 l18 114 55 -25 c31 -14 57 -26 59 -27z m-3792 9 c66
-31 141 -99 157 -141 6 -19 16 -35 20 -35 11 0 10 18 -2 41 -6 10 -8 19 -6 19
3 0 40 -21 82 -46 71 -44 78 -51 106 -113 38 -83 163 -395 194 -481 28 -78 31
-169 8 -267 -10 -44 -14 -90 -10 -129 l5 -62 -40 -27 c-21 -15 -55 -50 -74
-76 -26 -36 -42 -49 -60 -49 -13 0 -39 -13 -58 -30 -40 -35 -162 -64 -225 -54
-26 4 -58 0 -91 -11 -53 -17 -94 -62 -140 -152 -12 -24 -25 -43 -29 -43 -12 0
-122 231 -122 255 0 12 31 52 73 95 86 88 148 203 170 314 8 40 17 65 21 58
14 -23 27 -1 20 34 -4 24 -1 48 11 74 l17 38 34 -14 c19 -8 45 -12 59 -8 44
11 107 114 71 114 -9 0 -16 -6 -16 -14 0 -24 -50 -76 -74 -76 -32 0 -89 43
-130 98 -20 28 -36 52 -36 56 0 10 38 7 45 -4 3 -5 14 -10 23 -10 29 0 -11 31
-49 39 l-34 7 -28 119 c-37 164 -49 251 -42 308 11 81 42 101 125 83 33 -6 34
-6 16 9 -20 15 -81 20 -111 9 -52 -20 -64 -162 -26 -317 11 -49 21 -93 21 -99
0 -26 -11 5 -36 102 -37 142 -39 285 -6 347 37 70 81 80 167 39z m2244 -32
c29 -49 17 -57 -20 -14 -32 39 -35 50 -15 50 8 0 24 -16 35 -36z m41 21 c-9
-11 -8 -19 4 -37 9 -12 16 -27 16 -32 0 -13 -12 1 -39 47 l-23 37 27 0 c23 0
25 -2 15 -15z m-2086 -1 c32 -5 50 -13 57 -26 6 -11 9 -22 6 -24 -2 -3 -34 -2
-70 2 -46 5 -73 13 -93 30 l-29 23 41 1 c23 0 62 -3 88 -6z m2945 -29 c198
-50 465 -135 482 -153 8 -8 51 -144 47 -148 -2 -1 -35 6 -73 17 -94 26 -101
25 -109 -13 -4 -18 -29 -150 -56 -293 -208 -1098 -351 -1839 -355 -1843 -3 -3
-61 -26 -129 -52 l-124 -47 -126 5 -126 5 25 23 c31 29 32 68 3 97 l-23 22 23
22 c27 27 28 67 2 93 -16 16 -20 33 -20 89 l0 69 78 -1 c72 -2 81 0 115 26 73
56 73 53 241 987 86 476 158 870 161 876 2 6 -39 66 -91 133 -51 66 -91 121
-87 121 3 0 67 -16 142 -35z m-2435 -15 c132 -5 303 -10 379 -10 88 0 239 -11
415 -31 219 -25 299 -30 382 -25 58 4 117 9 131 12 26 6 27 5 20 -28 -6 -27
-14 -36 -46 -47 -56 -20 -246 -20 -545 1 -135 10 -328 22 -430 28 -346 21
-593 53 -621 81 -34 34 -25 47 27 38 26 -5 155 -13 288 -19z m3210 -21 c50
-28 93 -53 94 -54 6 -5 -19 -115 -25 -115 -3 0 -40 17 -82 38 -42 21 -85 41
-97 44 -19 5 -19 9 -10 72 6 36 14 66 19 66 5 0 50 -23 101 -51z m-1262 -57
c11 -115 93 -229 236 -330 181 -129 210 -230 107 -374 -49 -67 -83 -146 -101
-228 -7 -36 -14 -69 -14 -74 0 -5 -9 3 -21 17 -20 26 -20 28 -3 89 22 83 79
207 109 238 83 87 42 195 -114 305 -94 66 -151 125 -187 197 -47 92 -68 201
-41 211 20 7 24 0 29 -51z m117 -4 c25 -126 82 -215 166 -258 58 -30 131 -93
149 -129 10 -20 10 -36 1 -71 l-11 -45 -11 32 c-16 46 -87 118 -169 174 -115
77 -181 163 -210 274 -22 81 -20 85 30 85 l43 0 12 -62z m290 -1 c24 -31 42
-59 40 -61 -2 -3 -66 -8 -141 -12 l-137 -7 -11 28 c-6 16 -14 48 -17 72 l-6
44 114 -3 113 -3 45 -58z m-2811 47 c23 -5 34 -14 41 -37 6 -16 11 -31 11 -33
0 -2 -27 13 -60 33 -33 19 -60 37 -60 39 0 6 34 5 68 -2z m2332 -11 c0 -37 34
-151 62 -206 16 -32 46 -77 67 -100 85 -95 138 -204 147 -303 6 -72 -18 -221
-48 -293 l-14 -34 -42 51 -43 51 16 56 c21 72 21 181 0 244 -9 28 -39 81 -67
118 -115 154 -199 411 -140 426 39 11 62 7 62 -10z m-110 -20 c0 -10 3 -28 6
-40 8 -28 -9 -30 -66 -7 -34 14 -39 19 -28 31 27 33 88 43 88 16z m-1960 -12
c150 -24 253 -33 825 -68 288 -19 615 -24 650 -11 19 7 20 3 21 -90 0 -53 4
-127 9 -163 l8 -67 -69 16 c-58 13 -78 13 -124 3 -137 -31 -127 -32 -197 6
-46 24 -122 48 -252 80 -217 53 -273 54 -340 10 -22 -15 -47 -27 -54 -27 -14
0 -564 304 -582 322 -7 6 -1 8 15 4 14 -3 54 -9 90 -15z m3373 -78 c53 -25 97
-50 97 -54 0 -7 -192 83 -209 97 -17 15 29 -3 112 -43z m-3212 -94 c129 -72
238 -135 242 -139 5 -4 5 -24 1 -44 -5 -28 -10 -36 -22 -31 -9 3 -109 64 -224
136 -179 112 -211 136 -223 166 -16 38 -17 43 -11 43 2 0 109 -59 237 -131z
m2467 69 c9 -12 -9 -145 -33 -246 l-6 -24 -20 26 c-11 14 -51 47 -87 73 -83
58 -130 100 -148 135 l-14 26 108 7 c59 3 112 8 117 10 24 8 73 4 83 -7z m741
-68 c121 -64 186 -111 206 -151 l17 -31 -45 31 c-25 17 -81 49 -124 70 -45 23
-97 59 -123 85 -24 25 -40 46 -36 46 5 0 52 -23 105 -50z m-3178 -131 c116
-72 213 -137 216 -145 3 -7 -5 -43 -17 -79 l-22 -65 -58 0 c-65 0 -157 29
-183 58 -8 9 -43 86 -76 170 -34 84 -66 162 -71 173 -6 10 -8 19 -5 19 3 0
101 -59 216 -131z m2889 100 c41 -12 107 -26 145 -31 112 -16 114 -16 109 -35
-2 -10 -20 -103 -39 -208 -53 -281 -123 -647 -145 -755 -11 -52 -42 -214 -70
-360 -98 -503 -150 -763 -154 -768 -4 -4 -338 17 -342 21 -1 1 76 409 171 907
94 498 187 983 205 1078 18 94 35 172 39 172 3 0 40 -10 81 -21z m-2226 -115
c138 -34 208 -56 252 -80 68 -38 101 -41 181 -18 63 18 103 16 273 -15 65 -12
126 -30 140 -40 28 -20 37 -63 21 -101 -9 -22 -10 -21 -10 18 -1 53 -3 54
-191 86 -80 14 -160 28 -178 32 -28 6 -36 2 -66 -29 -32 -34 -56 -98 -56 -150
0 -14 -7 -28 -16 -31 -14 -5 -15 2 -9 59 6 52 4 70 -9 90 -25 38 -54 31 -106
-23 -42 -43 -80 -70 -80 -56 0 2 11 27 25 54 57 113 37 127 -249 181 -186 34
-216 18 -306 -164 -64 -130 -75 -181 -42 -210 18 -16 71 -31 166 -45 28 -4 51
-13 54 -21 11 -32 -198 11 -245 51 -21 17 -15 111 13 198 23 74 24 83 10 105
-11 17 -13 31 -6 57 9 30 13 33 48 33 23 0 50 9 70 24 34 24 73 39 106 40 10
1 105 -20 210 -45z m-144 -42 c0 -15 -77 -55 -127 -67 -54 -13 -54 -13 -40 9
25 38 72 63 121 63 25 1 46 -2 46 -5z m130 -22 c52 -11 100 -22 105 -24 6 -1
24 -7 40 -11 50 -14 53 -36 14 -102 -19 -31 -20 -31 -51 -16 -25 13 -40 14
-70 6 -21 -6 -38 -9 -38 -8 0 2 32 26 70 55 69 51 89 71 51 50 -30 -16 -46
-13 -31 5 7 8 8 15 2 15 -5 0 -15 -7 -22 -16 -28 -33 -49 -36 -94 -14 -24 11
-67 23 -96 27 l-52 6 29 23 c34 28 26 28 143 4z m1579 -76 c65 -73 66 -113 6
-210 -25 -40 -60 -117 -78 -173 -19 -56 -36 -99 -38 -96 -3 2 8 44 25 92 26
79 29 101 30 218 1 125 0 133 -29 190 -16 33 -31 64 -33 69 -9 18 86 -54 117
-90z m-1787 -19 c-4 -37 -16 -43 -44 -21 -14 10 -15 15 -5 25 10 11 7 12 -12
6 -17 -5 -21 -4 -16 5 4 6 15 10 25 7 10 -2 24 -1 31 4 23 14 25 11 21 -26z
m44 19 c-19 -19 -20 -26 -4 -42 31 -31 73 2 49 39 -9 16 -8 19 4 19 22 0 30
-27 16 -56 -9 -21 -17 -25 -49 -22 -30 2 -38 7 -40 26 -5 32 4 52 23 52 15 0
15 -1 1 -16z m129 -8 c18 -13 17 -14 -12 -29 l-30 -16 1 29 c1 33 12 37 41 16z
m-95 -11 c0 -8 -7 -15 -15 -15 -16 0 -20 12 -8 23 11 12 23 8 23 -8z m630 0
c-8 -9 -9 -15 -2 -15 6 0 14 5 17 10 3 6 16 10 27 10 20 0 21 -1 3 -20 -10
-11 -31 -20 -46 -20 -15 0 -41 -12 -58 -26 l-31 -26 11 28 c14 39 48 74 72 74
16 0 17 -3 7 -15z m-726 -60 c57 -22 114 -16 190 18 31 14 56 22 56 16 0 -5
-7 -12 -15 -15 -8 -4 -15 -12 -15 -20 0 -8 -4 -14 -9 -14 -4 0 -29 -18 -54
-40 -30 -26 -51 -38 -62 -34 -9 4 -14 13 -10 22 4 12 3 13 -9 3 -11 -10 -37
-9 -118 0 -57 7 -104 13 -106 15 -2 1 9 27 24 57 l28 56 27 -24 c16 -13 49
-31 73 -40z m882 42 c13 -13 -9 -34 -32 -29 -18 3 -23 9 -19 21 5 13 4 14 -6
4 -7 -7 -22 -13 -32 -13 -17 0 -18 2 -6 16 10 12 24 15 52 11 21 -3 41 -7 43
-10z m-2032 -110 c30 -32 32 -40 11 -57 -9 -7 -14 -19 -11 -25 2 -7 1 -17 -3
-24 -13 -20 -79 156 -81 213 0 6 13 -10 29 -35 15 -24 40 -57 55 -72z m1706
38 c0 -67 -7 -78 -31 -48 -8 9 -27 24 -42 33 l-28 17 30 32 c16 17 38 31 50
31 19 0 21 -6 21 -65z m445 56 l29 -6 -27 -18 c-21 -14 -32 -15 -48 -7 -11 7
-27 9 -35 6 -9 -3 -14 1 -14 14 0 16 6 20 33 19 17 -1 45 -4 62 -8z m63 -20
c26 -16 9 -46 -27 -49 -47 -5 -58 11 -25 37 30 23 33 24 52 12z m-322 -28
c-10 -10 -19 5 -10 18 6 11 8 11 12 0 2 -7 1 -15 -2 -18z m36 -5 c-7 -7 -12
-8 -12 -2 0 14 12 26 19 19 2 -3 -1 -11 -7 -17z m-441 -4 c17 -16 15 -18 -39
-54 -71 -46 -145 -124 -174 -184 -12 -25 -25 -46 -30 -46 -4 0 -15 11 -24 25
-41 63 45 195 171 264 30 16 76 13 96 -5z m369 6 c8 -5 11 -10 5 -10 -5 0 -17
5 -25 10 -8 5 -10 10 -5 10 6 0 17 -5 25 -10z m251 -10 c10 -6 19 -15 19 -20
0 -17 -34 -11 -60 10 l-25 20 23 0 c13 0 32 -5 43 -10z m-271 -20 c0 -3 -11
-10 -25 -17 -21 -9 -25 -9 -25 5 0 11 8 17 25 17 14 0 25 -2 25 -5z m231 -21
c55 -39 54 -46 -10 -52 -181 -16 -429 -227 -522 -444 -11 -26 -23 -79 -26
-116 l-6 -69 -35 35 c-65 66 -55 177 30 321 95 161 295 321 438 349 40 8 103
-4 131 -24z m-433 -6 c2 -8 -6 -13 -22 -13 -105 0 -316 -217 -316 -324 0 -29
-14 -35 -24 -10 -34 88 84 272 217 339 56 27 137 32 145 8z m608 2 c18 -14 18
-14 -8 -15 -15 0 -38 -5 -52 -11 -20 -9 -29 -9 -42 2 -15 12 -14 15 12 26 39
16 66 16 90 -2z m-1078 -19 c2 -3 -21 -23 -51 -45 -46 -35 -59 -40 -86 -35
-34 7 -62 38 -55 60 2 8 6 20 8 27 3 10 22 11 92 5 48 -5 90 -10 92 -12z
m1398 -18 l37 -33 -64 -6 c-65 -5 -183 -51 -222 -86 -16 -15 -20 -14 -52 17
-19 19 -35 37 -35 41 0 11 66 50 129 75 36 15 77 24 113 24 51 0 62 -4 94 -32z
m-1333 6 c4 -4 -3 -25 -15 -48 -13 -23 -23 -42 -24 -44 0 -1 -15 1 -33 4 l-33
7 29 23 c39 32 20 30 -22 -2 -19 -14 -40 -24 -47 -22 -6 2 13 23 43 46 50 39
86 51 102 36z m1040 -1 c-7 -2 -21 -2 -30 0 -10 3 -4 5 12 5 17 0 24 -2 18 -5z
m-600 -33 c5 -4 -15 -30 -43 -56 -29 -27 -72 -74 -96 -105 -44 -58 -114 -184
-114 -206 0 -23 -17 -14 -55 28 -33 37 -36 45 -30 77 20 106 130 227 244 268
35 13 78 11 94 -6z m557 0 c-19 -14 -28 -16 -39 -7 -11 10 -10 13 10 18 45 13
55 9 29 -11z m-37 -47 c59 -53 247 -234 247 -237 0 -1 -42 2 -92 6 -121 10
-156 0 -207 -59 -23 -25 -41 -50 -41 -55 0 -4 -33 -43 -73 -86 -130 -139 -198
-267 -201 -374 0 -32 -4 -57 -7 -55 -3 1 -71 64 -150 140 l-144 139 1 71 c0
60 6 84 36 147 104 222 351 419 526 420 37 0 49 -6 105 -57z m869 -30 c-9 -51
-22 -87 -38 -105 -19 -24 -35 -65 -60 -155 -2 -7 -9 -13 -15 -13 -16 0 -5 86
21 166 18 53 91 184 103 184 2 0 -3 -35 -11 -77z m-406 14 c22 -24 48 -55 59
-68 10 -13 52 -64 92 -114 41 -49 69 -91 64 -93 -5 -2 -92 6 -193 18 l-183 21
-91 87 c-50 48 -92 90 -93 94 -2 10 86 58 143 79 28 10 76 18 107 19 54 0 58
-2 95 -43z m371 -211 c-8 -43 -17 -80 -20 -83 -13 -13 -27 10 -21 35 11 45 46
134 51 129 2 -3 -2 -39 -10 -81z m-1710 -18 c-3 -7 -5 -2 -5 12 0 14 2 19 5
13 2 -7 2 -19 0 -25z m1016 -35 c62 -31 106 -136 114 -273 6 -110 -11 -194
-56 -275 -31 -57 -92 -95 -149 -95 -48 0 -111 65 -142 145 -27 73 -38 215 -21
295 21 103 80 198 136 221 24 9 80 1 118 -18z m149 -9 c97 -50 153 -265 113
-429 -20 -80 -50 -137 -94 -180 -28 -26 -40 -30 -103 -33 l-70 -4 40 51 c70
88 86 145 87 301 0 121 -3 141 -24 190 -13 30 -37 72 -54 94 l-30 38 54 -7
c30 -4 66 -14 81 -21z m278 -20 c102 -11 151 -21 164 -32 14 -13 20 -14 23 -4
4 11 44 17 54 7 7 -7 -106 -620 -114 -619 -4 1 -92 5 -197 9 l-190 7 40 45
c48 55 76 127 88 225 16 131 -9 257 -71 347 l-30 44 44 -7 c24 -3 109 -13 189
-22z m-2940 -94 c-17 -22 -45 -49 -61 -60 l-29 -21 0 25 c0 46 18 75 52 85 67
19 73 15 38 -29z m882 10 c46 -11 135 -25 198 -30 63 -6 151 -17 195 -24 l80
-14 -62 -1 c-35 0 -63 -5 -63 -11 0 -5 26 -7 63 -5 194 14 297 14 297 1 0 -7
11 -30 25 -50 l24 -36 -19 -61 c-11 -37 -38 -86 -66 -123 -37 -48 -40 -55 -14
-31 38 36 75 96 96 159 l16 46 36 -31 c21 -18 90 -83 155 -146 82 -80 117
-120 117 -136 0 -32 -42 -68 -130 -112 -98 -49 -181 -106 -256 -176 -69 -64
-106 -76 -250 -86 -61 -4 -94 -2 -130 11 -26 9 -78 16 -116 16 -78 0 -107 12
-228 93 -77 52 -201 170 -304 290 -31 37 -93 94 -137 128 -44 33 -77 65 -73
70 3 6 -2 17 -12 25 -18 14 -18 15 -1 10 10 -3 43 1 74 9 96 25 102 23 163
-54 30 -38 80 -111 110 -161 30 -51 81 -121 113 -156 59 -64 192 -171 250
-200 45 -23 31 -11 -57 49 -123 85 -216 183 -297 314 -40 63 -94 142 -120 174
-27 32 -49 60 -49 63 0 3 17 17 37 31 56 38 105 34 242 -21 64 -25 212 -95
330 -155 118 -60 216 -108 218 -106 5 5 -279 156 -382 202 -112 51 -239 102
-275 110 -16 4 -30 11 -30 17 0 31 103 128 136 128 7 0 50 -9 96 -20z m1362
-37 c-4 -16 -9 -32 -12 -37 -3 -5 -7 -43 -9 -83 -8 -138 28 -268 96 -346 l32
-36 -38 -16 c-67 -28 -127 -37 -172 -25 -51 13 -91 74 -91 139 0 78 61 211
139 302 18 22 31 42 29 45 -6 5 -73 -81 -112 -143 -36 -59 -65 -138 -73 -203
l-7 -55 -7 38 c-15 93 48 243 157 370 36 42 68 77 70 77 3 0 1 -12 -2 -27z
m-2290 -262 c37 -73 54 -117 48 -123 -47 -47 -132 134 -132 277 0 99 14 122
21 35 5 -65 14 -91 63 -189z m-112 178 c-7 -45 17 -165 43 -224 12 -27 45 -80
72 -117 28 -37 64 -89 81 -115 31 -49 85 -163 77 -163 -2 0 -57 32 -122 72
-65 39 -170 96 -233 126 -63 31 -116 56 -117 57 -7 4 51 197 72 240 18 39 116
155 129 155 1 0 0 -14 -2 -31z m413 -115 c17 -4 9 -17 -60 -88 -44 -46 -94
-90 -112 -99 l-31 -17 41 72 c69 119 104 148 162 132z m98 -81 c70 -55 169
-152 274 -270 79 -88 194 -180 300 -240 61 -33 75 -37 148 -39 44 -1 93 -7
108 -13 16 -6 44 -11 63 -11 19 0 34 -3 34 -7 0 -14 -96 -74 -159 -99 -86 -35
-170 -47 -278 -40 -163 11 -373 79 -543 175 -128 73 -142 85 -166 151 -21 54
-79 160 -120 218 -16 21 -15 22 7 22 46 1 105 39 184 119 44 45 81 81 83 81 1
0 31 -21 65 -47z m-715 -72 c-21 -80 -22 -82 -47 -76 -14 4 -39 15 -55 24
l-28 18 72 62 c40 34 74 60 76 58 3 -2 -6 -41 -18 -86z m-154 -24 c-8 -21 36
-52 131 -92 181 -76 309 -146 542 -298 311 -203 612 -292 848 -252 105 18 209
65 277 125 37 32 54 40 85 40 21 0 69 8 106 19 56 15 77 27 121 71 69 68 153
125 253 174 l81 39 47 -39 c26 -21 63 -59 82 -83 31 -42 34 -50 32 -111 -1
-51 4 -76 25 -120 25 -54 25 -59 25 -273 0 -121 4 -224 9 -230 19 -25 42 -348
43 -602 0 -170 -3 -232 -20 -325 -29 -158 -27 -256 4 -345 29 -81 78 -326 94
-470 16 -141 18 -155 16 -155 -2 0 -22 7 -46 16 -105 38 -232 56 -418 60
l-185 4 -117 116 c-92 91 -122 115 -141 112 -15 -2 -24 -11 -26 -27 -3 -19 17
-43 103 -123 l106 -101 -28 -17 c-15 -10 -48 -38 -73 -64 -36 -37 -51 -46 -80
-46 -35 0 -100 -27 -130 -52 -9 -7 -37 -40 -64 -73 -26 -33 -64 -70 -83 -81
-54 -33 -102 -85 -122 -130 -10 -22 -46 -70 -80 -106 -61 -65 -61 -66 -108
-61 -106 9 -173 27 -282 75 -78 34 -133 52 -172 55 l-58 6 -138 -134 c-170
-166 -187 -175 -295 -160 -71 10 -294 1 -334 -13 -7 -3 -14 17 -17 53 -5 46
-1 72 19 131 13 41 36 130 50 198 35 172 68 218 196 277 29 13 46 24 37 24
-32 2 -121 -53 -164 -101 l-45 -50 0 42 c0 89 130 310 282 477 46 51 93 100
106 108 12 9 22 21 22 28 0 15 -65 -48 -157 -153 -91 -103 -195 -257 -227
-336 l-24 -59 -8 60 c-5 33 -9 152 -8 265 0 250 13 310 104 486 79 155 173
443 140 432 -7 -2 -27 -55 -45 -118 -35 -119 -76 -226 -114 -295 l-22 -40 6
35 c20 118 24 205 19 360 -5 136 -3 191 9 245 8 39 13 72 11 74 -10 11 -26
-65 -32 -154 -6 -95 -6 -98 -14 -51 -5 26 -13 112 -18 190 l-9 141 4 -150 c3
-90 13 -198 26 -270 30 -171 17 -333 -42 -507 -55 -162 -74 -385 -49 -573 25
-187 8 -359 -56 -567 l-27 -87 -58 54 c-57 52 -222 145 -258 145 -9 -1 14 -14
50 -29 115 -50 228 -130 254 -180 7 -15 15 -44 17 -64 l3 -37 -75 -4 c-54 -2
-93 -11 -140 -31 -161 -68 -240 -94 -324 -105 -77 -10 -126 -23 -126 -34 0 -1
26 3 58 10 31 7 94 19 139 27 48 9 120 33 175 57 153 70 224 83 291 55 61 -25
118 -121 130 -220 6 -45 3 -77 -17 -205 -5 -31 -4 -30 10 10 10 27 17 81 18
135 1 107 -18 173 -69 232 l-34 40 35 6 c41 7 103 -17 152 -58 40 -34 52 -55
69 -125 l13 -55 -4 47 c-5 68 -46 132 -108 167 l-51 29 47 7 c26 4 86 4 134 0
153 -12 153 -12 207 25 28 19 105 88 172 153 l123 119 41 -7 c44 -8 75 -19
176 -65 78 -36 156 -60 202 -61 20 -1 47 -4 61 -8 22 -6 18 -11 -53 -55 l-78
-49 -22 20 c-26 24 -61 43 -79 43 -7 0 6 -9 29 -21 67 -33 68 -37 38 -131 -14
-45 -29 -110 -32 -143 -5 -60 -6 -61 -54 -88 -45 -25 -89 -76 -89 -102 0 -5 9
4 20 22 20 34 94 93 116 93 25 0 25 -38 -1 -75 -25 -38 -56 -125 -54 -154 0
-9 11 16 23 54 12 39 31 83 41 99 l19 29 29 -34 c46 -53 87 -148 87 -199 1
-88 62 -170 128 -170 27 0 30 -30 4 -53 -59 -53 -543 -242 -852 -332 -159 -46
-237 -53 -364 -30 -119 22 -211 16 -344 -20 -141 -38 -205 -79 -231 -147 -14
-38 -33 -35 -121 15 -109 63 -120 70 -120 84 0 7 -10 13 -23 13 -34 0 -171
105 -255 195 -79 85 -148 210 -173 315 -19 75 -16 253 4 308 42 113 46 338 10
642 -31 265 -22 758 21 1135 l12 110 22 -49 c40 -88 73 -199 84 -281 11 -85
16 -110 22 -104 2 2 -1 40 -5 83 -9 78 -59 247 -98 326 -31 65 -47 263 -32
402 19 179 71 360 145 507 14 26 76 124 138 217 62 93 142 223 178 289 56 104
79 134 165 220 55 55 133 129 173 164 40 35 85 81 99 102 13 21 38 42 53 48
39 13 58 46 74 127 13 73 30 114 46 114 5 0 7 -6 4 -13z m2652 -193 c55 -10
125 0 184 28 55 24 55 24 210 13 l155 -11 -140 -7 c-227 -11 -412 -50 -444
-94 l-16 -22 -66 66 -67 65 22 33 21 32 53 -48 c33 -30 66 -51 88 -55z m896
-1 c21 -3 35 -10 33 -17 -2 -6 -9 -36 -15 -66 l-10 -55 -273 0 c-328 -1 -538
-24 -629 -71 l-28 -15 0 75 0 75 54 20 c126 47 390 73 666 65 91 -3 182 -8
202 -11z m-17 -165 c11 -11 -13 -46 -51 -74 -35 -27 -40 -28 -182 -30 -328 -6
-493 -27 -614 -78 -13 -6 -21 3 -37 40 -12 25 -21 51 -21 56 0 29 168 70 355
87 109 10 540 9 550 -1z m-255 -178 l0 -60 -45 0 c-57 0 -92 -16 -103 -49 -13
-37 -15 -192 -3 -223 l10 -26 -77 -7 c-132 -11 -268 -33 -326 -53 l-56 -19 0
209 0 209 34 14 c81 34 280 62 454 64 l112 1 0 -60z m-75 -106 c-24 -24 -16
-85 13 -100 l23 -11 -26 -17 c-18 -12 -25 -25 -25 -49 0 -37 7 -49 35 -65 19
-11 19 -11 -5 -12 -14 0 -36 7 -48 16 -20 14 -22 23 -22 123 0 114 6 131 48
131 22 0 22 -1 7 -16z m35 -33 c0 -16 3 -36 6 -45 10 -25 -14 -19 -31 8 -13
19 -14 29 -5 45 15 30 30 26 30 -8z m78 -4 c3 -21 -2 -29 -20 -36 -28 -11 -48
3 -48 34 0 29 9 37 40 33 19 -2 26 -10 28 -31z m-74 -186 c-2 -2 -9 -1 -17 2
-22 8 -26 43 -8 69 16 23 16 23 22 -22 4 -25 5 -47 3 -49z m66 75 c6 -8 10
-25 8 -38 -2 -18 -9 -23 -33 -23 -26 0 -30 4 -33 32 -3 30 2 35 39 42 4 0 12
-6 19 -13z m760 -45 l65 -6 -168 -68 c-160 -64 -168 -67 -191 -51 -31 19 -120
44 -163 44 -18 0 -33 5 -33 10 0 6 6 10 13 10 6 0 57 18 112 40 99 39 101 40
200 34 55 -4 129 -9 165 -13z m-575 -86 c146 -10 285 -43 285 -69 0 -6 -20
-23 -44 -39 -42 -26 -45 -27 -80 -12 -143 60 -640 60 -820 0 l-70 -23 -38 24
c-69 44 -43 68 108 99 146 29 389 37 659 20z m84 -109 c41 -9 80 -21 88 -27 9
-8 13 -41 13 -115 l0 -103 -37 15 c-50 21 -243 43 -378 44 -134 0 -352 -23
-420 -44 -27 -9 -51 -16 -53 -16 -1 0 -1 46 0 102 l3 103 35 16 c30 15 105 28
240 43 86 10 438 -3 509 -18z m-836 -50 c15 -12 17 -36 17 -239 l0 -227 24
-15 c13 -9 54 -21 91 -28 38 -7 70 -19 75 -28 21 -37 129 -505 155 -674 27
-169 87 -333 181 -486 20 -33 32 -64 28 -68 -5 -4 -45 -32 -89 -61 -87 -58
-252 -180 -326 -242 l-47 -38 2 98 c0 60 -3 104 -10 113 -6 8 -14 57 -18 109
-13 178 -65 461 -103 559 -21 55 -25 82 -25 161 0 52 8 129 17 170 31 146 29
609 -4 855 -8 58 -2 66 32 41z m758 -171 c59 -7 123 -20 143 -29 l36 -15 0
-99 0 -100 -40 14 c-170 59 -669 52 -832 -11 -16 -7 -18 2 -18 93 0 99 0 100
28 110 122 47 469 66 683 37z m47 -220 c46 -7 95 -21 109 -31 l26 -17 -27 -14
c-60 -32 -161 -45 -386 -50 -228 -6 -358 4 -436 31 -50 17 -53 33 -12 50 116
49 512 66 726 31z m-1528 -1280 c63 -63 109 -115 102 -115 -18 0 -233 210
-226 221 3 5 6 9 7 9 1 0 54 -52 117 -115z m1479 33 c6 -18 13 -51 17 -73 5
-36 2 -45 -33 -87 -21 -26 -39 -44 -41 -39 -2 5 6 44 17 87 19 75 20 104 1 75
-4 -8 -18 -62 -30 -120 -22 -109 -68 -252 -69 -215 -3 101 83 404 114 404 8 0
18 -15 24 -32z m289 -21 c21 -22 27 -38 30 -90 l4 -63 -61 -80 c-71 -95 -180
-201 -227 -220 -35 -15 -75 -18 -111 -8 -16 5 -23 14 -24 33 l-1 26 -7 -25
c-4 -16 -9 -21 -14 -13 -9 14 42 158 77 217 27 46 82 100 146 142 67 44 49 62
-20 19 -22 -14 -41 -25 -42 -25 -2 0 -4 18 -5 39 -2 32 1 40 20 46 93 30 118
34 160 31 36 -2 56 -10 75 -29z m-409 -129 c-30 -102 -42 -230 -41 -428 1
-242 -17 -377 -49 -360 -44 24 -137 -5 -195 -61 -26 -25 -33 -28 -43 -15 -10
11 -6 18 21 34 57 35 127 61 175 65 26 3 49 10 51 17 4 10 -10 12 -57 7 -45
-4 -84 -16 -143 -46 l-80 -41 -89 82 c-49 46 -89 85 -89 89 0 3 27 28 61 54
79 62 89 84 59 127 -12 18 -44 51 -71 72 -36 29 -46 42 -38 52 32 39 509 384
531 384 4 0 2 -15 -3 -32z m-944 -8 c115 -10 275 -42 330 -65 37 -15 38 -16
33 -60 -6 -49 4 -66 22 -38 9 14 10 -4 6 -76 -3 -51 -7 -95 -9 -97 -2 -2 -24
7 -48 20 -63 35 -201 73 -315 86 -124 14 -356 10 -361 -7 -3 -8 36 -11 144
-11 312 0 486 -46 640 -171 85 -70 88 -85 27 -139 -27 -24 -63 -54 -79 -67
l-30 -24 -70 35 c-43 21 -140 52 -249 79 -98 25 -194 53 -213 62 -37 17 -56
11 -32 -11 18 -17 107 -45 274 -86 136 -34 251 -79 273 -107 7 -10 12 -48 12
-97 0 -97 -19 -142 -70 -170 l-36 -19 -54 54 c-64 64 -258 185 -272 171 -7 -7
-2 -15 13 -25 13 -7 60 -36 104 -63 126 -76 195 -148 195 -203 0 -11 -12 -33
-26 -50 -40 -47 -129 -70 -314 -81 -85 -5 -181 -16 -212 -24 -33 -9 -115 -50
-190 -95 -174 -103 -240 -135 -349 -172 -116 -39 -218 -49 -254 -25 -40 27
-65 75 -65 128 0 63 -22 116 -88 213 l-54 80 5 65 c3 36 15 97 27 136 l22 72
105 68 c114 75 197 156 244 240 28 50 72 95 134 138 15 10 47 45 73 77 25 33
60 69 79 80 37 23 96 42 91 30 -2 -5 -41 -43 -88 -86 -47 -43 -86 -81 -88 -86
-17 -43 129 78 291 241 54 54 86 68 185 80 94 10 123 11 237 0z m1458 -87 c58
-57 75 -106 59 -161 -16 -52 -37 -72 -183 -174 -68 -48 -155 -115 -192 -149
-79 -72 -104 -77 -151 -30 -26 27 -31 38 -29 75 2 71 62 160 113 171 66 14
201 139 295 272 17 24 33 43 36 43 3 0 26 -21 52 -47z m-513 -303 c0 -26 -3
-76 -7 -111 -6 -54 -8 -59 -14 -34 -4 17 -7 72 -8 124 -1 82 1 92 14 81 9 -8
15 -30 15 -60z m70 34 c0 -3 -11 -19 -25 -36 l-25 -30 0 36 c0 32 3 36 25 36
14 0 25 -3 25 -6z m404 -59 c-7 -29 14 -58 58 -81 18 -9 25 -19 22 -29 -8 -21
-194 -159 -256 -191 -57 -29 -190 -57 -229 -49 -30 7 -42 35 -29 70 12 31 28
40 67 36 28 -2 42 6 90 52 47 44 270 217 281 217 1 0 0 -11 -4 -25z m-459
-198 c4 -12 -7 -64 -24 -117 -16 -52 -39 -124 -50 -160 -26 -82 -22 -54 20
142 19 87 37 158 41 158 4 0 10 -10 13 -23z m576 3 c31 0 49 -5 52 -14 6 -14
-37 -29 -211 -75 -84 -21 -84 -22 18 52 46 34 79 52 85 46 5 -5 30 -9 56 -9z
m-560 -43 c-10 -9 -11 -8 -5 6 3 10 9 15 12 12 3 -3 0 -11 -7 -18z m-541 -64
l45 -47 -52 43 c-29 24 -53 45 -53 47 0 13 21 -2 60 -43z m500 -111 c-35 -69
-37 -63 -8 31 18 60 22 67 29 48 7 -16 1 -37 -21 -79z m-85 19 c0 -8 -19 -19
-48 -26 -26 -7 -66 -27 -88 -45 -37 -29 -42 -31 -56 -17 -14 14 -13 18 13 42
46 43 95 65 139 62 26 -1 40 -7 40 -16z m306 9 c66 0 82 -3 99 -20 46 -46 12
-98 -144 -223 -132 -105 -288 -207 -406 -267 -88 -44 -97 -47 -115 -33 -34 26
-105 55 -153 62 l-46 6 -28 75 -28 75 37 55 c20 30 69 88 111 128 71 70 75 72
93 56 25 -22 24 -27 -9 -66 -47 -54 -86 -128 -74 -140 17 -17 37 -5 93 61 30
35 59 66 64 67 6 2 23 -8 39 -21 l30 -24 -20 -58 c-19 -57 -40 -86 -80 -109
-10 -7 -16 -15 -12 -19 13 -14 51 8 139 82 116 96 193 149 235 163 36 12 37
35 0 27 -11 -2 -31 -2 -43 2 -22 6 -22 6 14 70 l35 63 46 -6 c24 -3 80 -6 123
-6z m-305 -85 c-6 -31 -10 -35 -37 -35 -19 0 -39 -10 -56 -26 l-26 -26 -24 25
-25 25 45 31 c39 27 114 54 126 45 2 -2 0 -19 -3 -39z m-271 -122 c-66 -78
-89 -93 -56 -38 39 67 93 127 104 116 7 -7 -9 -33 -48 -78z m258 63 c-4 -7
-22 -25 -39 -40 -27 -22 -33 -24 -44 -11 -9 11 -7 19 14 40 27 27 84 36 69 11z
m107 10 c0 -2 -9 -6 -20 -9 -11 -3 -20 -1 -20 4 0 5 9 9 20 9 11 0 20 -2 20
-4z m-110 -64 c0 -5 -9 -17 -19 -26 -14 -13 -21 -14 -27 -5 -4 7 1 18 11 26
21 15 35 17 35 5z m-90 -45 c0 -16 -40 -81 -46 -75 -8 8 28 98 37 92 5 -3 9
-11 9 -17z m-399 -184 c12 -38 25 -73 30 -78 4 -6 9 -26 12 -45 4 -33 4 -33 5
8 l2 43 38 -7 c38 -6 142 -49 142 -58 0 -3 -32 -15 -71 -27 -64 -19 -85 -21
-188 -15 -116 7 -135 11 -115 24 26 17 75 99 94 158 12 35 23 64 25 64 2 0 13
-30 26 -67z"/>
<path d="M7445 11930 c-4 -28 -5 -54 -2 -56 3 -3 8 18 12 46 4 28 5 54 2 56
-3 3 -8 -18 -12 -46z"/>
<path d="M9196 8451 c23 -21 256 -172 260 -168 5 4 -252 177 -263 177 -4 0 -3
-4 3 -9z"/>
<path d="M4780 9219 c0 -5 5 -7 10 -4 6 3 10 8 10 11 0 2 -4 4 -10 4 -5 0 -10
-5 -10 -11z"/>
<path d="M2255 6733 c-46 -68 -30 -183 40 -293 16 -25 30 -40 32 -33 2 6 -8
30 -22 53 -64 101 -76 213 -30 268 27 32 31 42 15 42 -5 0 -21 -17 -35 -37z"/>
<path d="M2350 6731 c0 -6 5 -13 10 -16 20 -12 10 -63 -20 -100 -39 -49 -42
-115 -7 -145 65 -57 84 -77 89 -90 3 -8 9 -12 13 -8 12 11 -24 62 -61 86 -39
25 -58 64 -48 96 4 11 20 37 35 57 31 40 37 83 15 112 -14 19 -26 22 -26 8z"/>
<path d="M5776 6163 c-61 -301 -236 -1227 -232 -1230 5 -5 262 -42 297 -43 13
0 20 15 27 58 6 31 61 315 122 630 61 316 110 575 108 576 -3 3 -286 36 -305
36 -6 0 -14 -12 -17 -27z m168 -8 c66 -8 121 -17 124 -19 4 -5 -227 -1208
-233 -1214 -3 -3 -267 28 -272 32 -1 1 50 267 113 591 62 325 114 598 114 608
0 21 4 21 154 2z"/>
<path d="M3460 6415 c-19 -14 -30 -25 -24 -25 10 0 73 49 63 50 -3 0 -20 -11
-39 -25z"/>
<path d="M4494 6255 c-10 -8 -14 -15 -8 -15 6 0 17 7 24 15 16 19 9 19 -16 0z"/>
<path d="M3596 5171 c36 -16 107 -22 139 -12 26 8 22 9 -31 10 -34 1 -77 3
-95 6 -27 4 -30 4 -13 -4z"/>
<path d="M3846 5136 c-31 -54 -96 -112 -193 -173 -40 -26 -71 -49 -68 -51 8
-9 140 82 199 138 32 30 65 69 74 85 l15 30 11 -32 c12 -35 32 -60 23 -28 -3
11 -9 32 -13 48 -9 37 -18 34 -48 -17z"/>
<path d="M1470 2763 c0 -4 43 -49 95 -99 52 -50 95 -87 95 -83 0 9 -44 54
-133 137 -31 29 -57 49 -57 45z"/>
<path d="M1550 1543 c-50 -37 -150 -136 -150 -147 0 -5 28 19 62 54 34 34 79
74 100 88 21 13 38 26 38 28 0 10 -18 2 -50 -23z"/>
<path d="M5647 1602 c-10 -4 16 -7 60 -8 51 0 111 -9 173 -26 125 -34 170 -42
170 -28 0 5 -15 10 -32 10 -18 0 -76 12 -128 26 -101 26 -213 39 -243 26z"/>
<path d="M6240 1354 c-121 -15 -307 -48 -315 -56 -7 -7 -3 -8 10 -5 112 32
392 60 535 54 199 -8 361 -51 493 -131 31 -19 57 -31 57 -27 0 10 -117 75
-180 100 -125 48 -207 62 -390 66 -96 2 -191 1 -210 -1z"/>
<path d="M3711 1150 c-72 -52 -118 -108 -156 -188 -21 -42 -50 -97 -67 -121
-16 -24 -27 -45 -25 -48 8 -7 43 48 91 145 52 104 96 158 167 204 27 17 49 33
49 35 0 10 -22 0 -59 -27z"/>
<path d="M5738 1000 l-3 -150 63 0 62 0 0 150 0 150 -59 0 -60 0 -3 -150z"/>
<path d="M3440 985 c-94 -122 -208 -200 -358 -245 -40 -12 -71 -24 -69 -27 9
-8 122 30 192 64 39 19 93 52 120 72 51 38 172 177 163 187 -3 2 -24 -21 -48
-51z"/>
<path d="M7091 825 c3 -2 56 -11 119 -20 376 -52 435 -71 600 -192 52 -38 111
-78 130 -90 50 -31 140 -64 140 -53 0 6 -7 10 -14 10 -27 0 -160 75 -246 139
-156 116 -234 143 -530 186 -180 26 -207 28 -199 20z"/>
<path d="M2900 511 c-19 -4 -44 -13 -55 -20 -11 -7 -13 -10 -5 -8 131 39 217
33 477 -34 238 -61 280 -62 468 -6 66 19 140 40 165 46 l45 10 -55 -6 c-30 -3
-104 -21 -165 -40 -60 -19 -141 -36 -180 -39 -74 -6 -78 -5 -330 61 -145 38
-291 53 -365 36z"/>
<path d="M4475 509 c-71 -5 -150 -13 -175 -18 l-45 -10 55 5 c281 24 583 30
724 14 108 -13 153 -35 254 -126 40 -37 75 -64 78 -62 8 8 -159 147 -202 168
-23 12 -79 25 -125 30 -97 11 -377 11 -564 -1z"/>
</g>
</svg>
